<?xml version="1.0" encoding="utf-8"?>
<!-- Generator: Adobe Illustrator 21.0.1, SVG Export Plug-In . SVG Version: 6.00 Build 0)  -->
<svg version="1.2" baseProfile="tiny" id="ŕđ_1" xmlns="http://www.w3.org/2000/svg" xmlns:xlink="http://www.w3.org/1999/xlink"
	 x="0px" y="0px" viewBox="0 0 397 397" xml:space="preserve">
<circle fill="#FFFFFF" cx="198.5" cy="198.5" r="191.2427979"/>
<polygon fill="#FFFFFF" points="177.5801544,339.2830811 155.9462128,330.3486023 140.1386566,316.3136292 129.0177155,299.0811462 
	130.3622589,292.3926697 125.7422028,279.9121704 124.5226517,264.1408386 125.0743942,257.9928589 116.5618134,252.2389832 
	111.202034,237.8937073 111.9114227,225.1248322 116.8770905,213.2229767 129.1730499,204.079834 138.0797272,204.079834 
	145.1735535,204.6315765 150.9274292,199.032074 145.0159149,194.7790527 121.1467438,181.7190704 112.6996231,170.8177032 
	102.2165298,161.516922 95.5956345,147.4869232 99.6942825,128.6156769 104.1870346,116.5893936 116.0888901,96.8843384 
	143.1242218,78.3615875 162.5139923,72.6077118 183.5590057,70.4795609 209.3332062,73.2382736 230.2205658,82.2237778 
	243.5411835,91.0516434 256.0736084,103.0323105 262.6944885,114.6977081 266.635498,129.5947266 264.6331177,153.556076 
	259.147583,165.5367432 243.4623718,183.1976624 230.3782043,191.1148682 230.8537292,195.0155029 234.1615753,196.0979004 
	239.915451,191.626236 248.8221436,190.7592163 257.4923706,194.9366913 262.6944885,202.2669678 263.3250732,210.7795563 
	262.7733154,217.2428131 257.4923706,227.0165253 263.6403503,247.2733154 274.9116211,246.2486572 281.2172546,247.430954 
	290.1239319,253.1848297 301.2375793,266.190155 305.0209656,276.0426941 297.2965698,289.1268616 285.0794373,288.4174805 
	272.1529236,281.4812927 260.6451721,271.8652344 256.9145813,292.5949402 246.8516388,310.8812256 237.6296692,323.256012 
	222.4961853,334.3696594 204.3675385,340.5964661 186.2388916,340.9905701 "/>
<circle fill="#6359E7" cx="229.0806885" cy="59.752861" r="10.126441"/>
<path fill="#6359E7" d="M148.6167908,198.8694611c-4.0567017-1.6605988-7.9315033-3.2814941-11.6414032-5.2690887
	c-9.8662949-5.2858124-18.4568939-12.1000977-25.3380966-20.9842987c-0.5289001-0.6829071-1.1116028-1.2743988-1.8624039-1.7546997
	c-11.7964935-7.5474091-15.6598969-18.7909088-14.7370987-32.1397095
	c0.3666992-5.3040924,2.3243027-10.1380005,4.7866058-14.8560944c1.730896-3.3167038,2.619194-7.0620041,4.1860962-10.4772034
	c6.7207108-14.6483002,17.7743988-25.230896,31.7227097-32.8655014
	c18.4937897-10.1224976,38.3712921-13.531395,59.2371826-11.3436966c20.1887054,2.1166,38.2663116,9.2973022,53.2946014,23.2192993
	c10.8500061,10.0511017,17.9302063,22.2642975,19.9245911,37.1082001c0.7270203,5.4105988,0.3424988,10.7671967-0.4562988,16.216095
	c-1.5892029,10.842804-6.4765015,20.0630035-13.0888824,28.4253998
	c-4.8159027,6.0903015-10.8106995,11.0436096-17.3931122,15.224411c-1.8999939,1.2067871-3.7848969,2.4375-5.7016907,3.6732941
	c1.7231903,1.2041931,1.7056122,1.1820984,3.0630035,0.0980072c6.8862915-5.4996033,16.0615997-5.5062103,23.138382,0.5849915
	c4.0917053,3.5218048,6.7021179,7.9318085,7.3424072,13.1210938c0.7477112,6.0587006,0.043396,12.0786133-3.8527832,17.2101135
	c-0.53302,0.7020874-0.7254028,1.3210907-0.5859985,2.133194c1.0526733,6.1307983,2.6901855,12.0581055,5.8697815,17.4812012
	c0.7705078,1.3143005,1.4381104,2.2388,3.2709045,1.6132965c3.7933044-1.2946014,7.6940002,0.0223999,11.5455933-0.1851959
	c0.8263245-0.0444946,1.4771118,0.4662933,2.1237183,0.9089966c5.2503967,3.5948029,9.9368896,7.7456055,14.0247803,12.6933899
	c1.9855042,2.4034119,3.7200928,5.3746033,7.2773132,6.2676086c2.1289978,0.5343933,2.5950012,2.7488098,3.1308899,4.6375122
	c0.0950012,0.3345947,0.0112,1.0068054-0.1813049,1.0923767c-2.3089905,1.0257263-0.8596802,2.6413269-0.6640625,4.0272217
	c0.6443787,4.5636902,0.196991,9.0346985-1.0895386,13.434906c-0.1499939,0.5126953-0.3923035,1.0655823-0.7570801,1.4377747
	c-4.1462097,4.2301025-8.0227966,8.7373047-12.5865173,12.5397034c-1.3461914,1.1217041-3.0589905,1.7456055-4.3236084-0.0257874
	c-1.039978-1.4572144-1.7931824-3.0996094,0.1847229-4.7026062c2.0141907-1.6322937,2.0150146-3.9379883,1.4689941-6.2680969
	c-0.1672974-0.7138977-0.5282898-1.1239929-1.3568115-1.3649902c-13.6506958-3.97052-13.646698-3.9841003-25.5037842-13.9584961
	c-0.6277161,2.9012756-1.1440125,5.7076721-1.8475952,8.4665833c-2.9760132,11.6705017-8.3393097,22.1358948-15.6676025,31.6983032
	c-10.8188019,14.1170959-24.8066101,22.989502-42.3541107,25.941803
	c-12.7224884,2.140686-24.9877014,0.2280884-36.5861969-5.4100952c-6.248291-3.0374146-12.7338867-5.6309204-18.3712921-9.861908
	c-9.134201-6.8553162-15.82901-15.5271912-20.0917053-26.1075134c-0.7265015-1.8032837-1.1638031-3.6467896-0.3588028-5.4704895
	c0.7236099-1.6390991,0.4966965-3.0911865-0.0471954-4.7153931c-3.1592026-9.4335022-4.6697998-19.148407-4.6193008-29.0924072
	c0.0074081-1.4529114-0.3579025-2.3651123-1.5818024-3.3045959c-8.1216965-6.233902-12.0322952-14.6652985-12.2410965-24.7891083
	c-0.2297974-11.1458893,3.8753052-20.3616943,13.0274963-26.9588013c5.7318192-4.131485,12.280098-5.6348877,19.1850967-4.0531921
	c2.599411,0.5953979,4.2637177,0.2736969,5.7230072-1.8117065
	C147.6056824,199.8559723,148.0809937,199.4472656,148.6167908,198.8694611z M125.3895874,181.7185516
	c0.0367508-0.0068665,0.0293045-0.0507507,0.0293045-0.0507507c-1.0552063-2.377594-3.1095047-4.0118408-4.445015-6.2028503
	c-1.2426758-2.039093-1.3146667-1.9953003-4.0691833-1.4709778
	C119.7266846,176.7078705,122.0523987,179.7507782,125.3895874,181.7185516z M117.764389,162.9303741
	c-1.4722977-2.0590057-2.8100967-4.1582031-5.9837952-2.4829102c-0.9722061,0.5131073-2.3813019,0.094696-3.6049042-0.3235931
	c-1.7117996-0.5852966-3.0803986-1.7324982-4.6363983-2.5263062c-0.6419983,1.0191956-0.9553986,1.9434967-0.0764999,2.9990082
	c1.0892029,1.3080902,1.9680023,2.7966003,3.4073029,3.7883911c5.4975967,6.1165009,15.755394,8.1032104,21.8304977,4.031601
	C124.6781998,167.117569,121.0362015,165.3755646,117.764389,162.9303741z M121.6235886,122.8976669
	c2.7475052-2.3526001,5.9735031-3.888298,9.3799973-5.2904968c-7.3949966-4.785202-16.6113815-3.9381027-23.0323868,1.9950943
	c-1.9098053,1.0510025-2.6426086,3.7423019-1.5982056,5.7064056c0.3542099,0.6661987,0.6990967,0.5768967,1.4142075,0.5136948
	c3.5756912-0.3162994,7.2320862-0.6651001,9.9114914,2.8006973
	C118.8224869,126.3623657,120.1033936,124.5444641,121.6235886,122.8976669z M256.3194885,208.0237732
	c6.5368042-2.8904114,6.1452942-2.0549011,2.8761902-7.8014984c-3.7191925-6.5375061-10.6427917-9.5643005-18.526474-6.7677002
	c-1.4820099-0.0361023-2.5538177,0.9193878-3.5755157,1.7349854c-0.4248962,0.3391113-1.5516968,0.9541016-0.9143982,1.833313
	c0.4436035,0.6118927,1.2516022,0.5966949,2.0833893,0.2458954c2.8396149-1.1972961,5.1676025-0.1970062,7.1188049,1.9436951
	c1.7344055,1.9026031,2.4154968,4.2831116,3.132309,6.6957092c0.357193,1.2023926-0.7255096,3.1434021,1.1218872,3.5299988
	c1.2758026,0.2670898,2.7398071-0.3415985,4.1138-0.5917053C253.9552002,208.80896,255.7208862,208.2885742,256.3194885,208.0237732
	z M166.7676849,327.2277527c-2.8145905-1.9857788-5.6716003-3.9144897-8.4344025-5.9700928
	c-4.5941925-3.4180908-8.8977966-7.1896057-13.1197968-11.0547791c-0.9440002-0.8642273-4.6992798-0.9484253-4.7449951-0.1405029
	c-0.0906982,1.6033936-0.543808,3.4031982,0.6380005,4.7637939c4.8181915,5.5477905,10.302002,10.2716064,17.084198,13.3131104
	c5.5652008,3.5299988,16.3773956,6.1082764,20.457901,4.8026733
	C174.3470917,331.5775757,170.5444946,329.4290771,166.7676849,327.2277527z M207.6799927,329.2778625
	c-5.3502045,3.6687012-10.8205109,7.1360168-17.3417053,10.0052185c4.2249146,0.2287903,7.7897949,0.1503906,11.3222046-0.4208069
	c5.3027954-0.857605,10.5561981-1.9223022,15.3395996-4.5496216c4.9057922-1.5970764,9.0839996-4.4882813,13.1837006-7.4932861
	c2.062088-1.5114136,4.1006927-3.0794983,5.8589935-5.1590881c-1.3356934-0.3416138-2.0178986,0.4516907-2.8650055,0.9454041
	c-9.8429871,5.7376709-20.8809967,4.9174805-27.8668976-3.9838257c-0.3516846-0.4481812-0.635788-0.9257813-1.2738953-0.8500977
	c-1.4255981,0.1693115-2.2503052-0.8383789-3.2454987-1.559906c-1.5587006-1.1300964-3.0213928-2.4975891-5.1589966-2.6550903
	c1.2754974,2.6987915,1.7881012,5.3562012,1.7648926,8.1368103c-0.0283966,3.4083862,1.0171051,4.2431946,4.4546051,3.5093079
	c1.1573029-0.2471008,2.2518921-0.7401123,3.1660004-1.4878235c0.7904968-0.6464844,1.5207977-0.5885925,2.3750916-0.2243042
	C210.2572021,324.7120667,210.3486938,326.4240723,207.6799927,329.2778625z M147.8225861,290.9657593
	c2.15271-0.6594849,4.2846985-1.3986816,6.462204-1.962677c5.1622925-1.3370056,10.4546967-1.534729,16.1847992-1.420105
	c-4.2478943-3.8970947-8.2458038-7.0570068-14.0764923-6.5606995c-2.4107056,0.2050781-4.8578949,0.1365967-7.2597046,0.502594
	c-5.7628021,0.8783875-10.8363037,3.0603943-14.4221954,7.9202881c-2.2033081,2.9861145-2.1982117,2.9898071,0.5755005,5.6394958
	c0.9302979,1.5381165,1.9335022,2.3101196,3.4968872,0.6085205c0.4329987-0.4712219,1.2319031-0.8126221,1.8806152-0.843811
	C143.701889,294.7033691,145.5278931,292.4193726,147.8225861,290.9657593z M194.0669861,304.3141785
	c2.1611023,0.5614014,3.9988098,1.874176,6.1271057,2.9174805c-0.7208099-4.7912903-0.7448883-9.2857971-0.202301-13.7937927
	c0.5379028-4.4679871,2.1127014-8.6604919,3.6347961-13.1608887c-3.0690002,0.2911987-5.835495,0.5535889-8.6018982,0.8161011
	c-8.3403015,0.3125-16.6764069,0.7390747-25.7250061,0.5114746c1.1572113,0.927002,1.7046051,1.3535156,2.2393036,1.7955017
	c6.6546021,5.5012207,12.716507,11.5871277,17.7057953,18.6460266
	C190.5439911,303.8842773,191.7558899,305.0384827,194.0669861,304.3141785z M270.3513794,259.3766785
	c-3.4223022,3.6230774-4.283783,8.1418762-4.4855957,12.8834839c-0.0285034,0.6679993,0.4004211,1.1618042,0.8384094,1.6219177
	c5.980011,6.2822876,13.0737915,10.5543823,21.7060852,12.0805969c0.9110107,0.1611023,1.7088013,0.2830811,2.1351013-0.7709045
	c0.7434998-1.2546082,2.8802185-0.3484192,3.2943115-2.1656189c0.4995117-2.1915894,2.4437866-2.3440857,4.0852051-3.209198
	c1.4454041-0.7619019,0.7791748-3.7299805,2.9697876-4.5430908c0.3626099-0.1345825,0.7109985-0.3414001,1.0847168-0.4057007
	c0.8954773-0.1539001,0.8807983-0.7420959,0.7398987-1.405304c-0.6867065-3.2302856-2.0980225-4.1421814-5.3328247-3.4732971
	c-0.6852722,0.1418152-1.3772888,0.2841187-2.072998,0.3374023c-1.4848938,0.1137085-2.5404053-0.5113831-3.1463928-1.908905
	c-0.6083069-1.4028931-0.1911011-2.5299072,0.7055969-3.6687927c0.8287964-1.0526123,2.077301-1.2467957,3.3591919-1.9162903
	c-3.2462769-3.7093201-6.5419922-7.2375031-10.3535767-10.2636108c-0.4533081-0.3598938-0.9058228-0.5903015-1.4994202-0.4819946
	C278.9544983,253.0778656,273.8582153,254.6968689,270.3513794,259.3766785z M158.8778839,231.5022736
	c1.6820068-0.2606049,2.1054077-0.9676056,1.8966064-2.6460114c-0.8829041-7.097702-3.6770935-13.2433929-9.0404053-18.0110931
	c-5.2158813-4.6367035-11.2896881-6.8354034-18.3567963-5.5218964c-0.4644012,0.0439911-0.9400024,0.037796-1.3914032,0.1392975
	c-9.1540985,2.0563965-17.3260956,10.9830933-18.797493,20.4761047c-0.3144989,2.0289001,0.9694977,2.9983978,2.5218964,4.2696991
	c0.0904999-1.4071045,0.1674042-2.4723053,0.2261047-3.5385132c0.2220993-4.0386963,1.5529938-7.6729889,3.729805-11.0817871
	c2.889389-4.5245056,9.6236877-5.1707001,13.1953888-1.357605c5.1136169,5.4590912,5.6389008,12.0240021,5.1334076,18.8771057
	c-0.0749054,1.0165863,0.0853882,1.1701965,0.822998,1.2783966
	C140.1531982,234.7216644,153.711792,232.3027649,158.8778839,231.5022736z M120.2838898,252.2960663
	c0.0222015,0.0751953,0.0228043,0.1694946,0.0698013,0.2229004c6.0422974,6.8586884,16.2302933,9.1952972,24.7056046,5.6699066
	c8.5329895-3.549408,16.1602936-14.5691986,15.7274933-22.6130981c-0.0595856-1.1069031-0.4602966-1.0330048-1.3016968-0.8947144
	c-5.5598907,0.9141998-22.3318939,1.0406036-24.0966949,6.5838013c-0.1743011,0.6404114-0.5827026,1.2557068-1.0061951,1.7837067
	c-3.7980042,4.7348022-9.0619125,6.2574921-13.7686081,1.1555023c-1.827301-1.9806976-3.2262039-4.2621002-3.6483002-6.8704071
	c-0.4269028-2.6378937-2.0475998-3.9167938-4.3953018-5.2182007
	C112.7066879,239.9956665,114.835289,246.7698669,120.2838898,252.2960663z M121.1322937,161.0706635
	c2.9440994,2.4792023,6.5917969,3.4237976,10.0950928,4.7174988c1.3263092,0.4898071,2.152298,0.1622009,3.1108093-0.7155914
	c11.6936951-10.7089081,12.3190002-32.418808,1.2834015-43.8633041c-0.910202-0.9439011-1.6740112-1.0821991-2.8556061-0.6699982
	c-3.1813965,1.1100006-6.1350021,2.6116028-8.8049011,4.6678009c-0.5438919,0.5474014-1.2944031,1.0018005-1.590889,1.6605988
	c-0.7465134,1.6583023-2.471611,3.2049942-1.7117081,5.148201c1.4571991,3.7266998,2.6287994,7.3930969,2.4489975,11.5115051
	c-0.2022934,4.6351929-1.1495972,8.9232941-4.2528,12.4496002c-1.2854919,1.4608002-0.8497009,2.5072937,0.2108994,3.5923004
	C119.6522903,160.1695709,120.4368896,160.5765686,121.1322937,161.0706635z M173.3156891,326.4316711
	c3.2667999,1.9317932,6.7700958,3.2179871,10.5207977,3.8019104c5.648407,0.8791809,9.6269989-2.4875183,9.8072968-8.2385254
	c0.080307-2.5592957-0.5281982-4.9697876-1.4659882-7.3115845c-2.330307-5.818512-5.8279114-10.9385071-10.0087128-15.5187988
	c-8.6490936-9.475708-4.7550964-7.553894-17.0020905-7.7734985c-0.3130035-0.0056152-0.6282043-0.0018921-0.9396057,0.0267944
	c-4.5921783,0.4222107-9.2110901,0.7210083-13.4405975,2.8526001c-0.7164917,0.28479-1.4382935,0.5574036-2.1485901,0.8569031
	c-1.6092072,0.6788025-2.267807,1.4762878-0.96521,3.2164917c1.1074982,1.4797058,1.533905,3.6066895,0.7364044,5.1625061
	c-1.8298035,3.5694885,0.4624023,5.1477966,2.6983948,6.931488c0.6110992,0.4875183,1.1649017,1.0461121,1.7649994,1.5480957
	C159.2932892,317.3580627,165.7272949,322.7119751,173.3156891,326.4316711z M191.2923889,101.7676697
	c1.1894073-0.3368988,2.3731995-0.6958008,3.5693054-1.0072021c6.8258972-1.777298,13.7513885-2.6435013,20.8102875-2.1882019
	c1.1357117,0.0733032,1.4316101-0.0409012,1.1053009-1.3824005c-0.7391968-3.0388947-1.7987976-5.9567947-3.0921936-8.7629013
	c-4.1902008-9.0903931-10.5167999-15.5181961-21.1591949-16.2451935c-2.1101074-0.1442032-4.2264099-0.2287064-6.3413086-0.2690048
	c-13.5345001-0.2584991-26.6701965,1.7241058-39.2059021,7.0387039c-0.8414764,0.1119003-1.5792999,0.3311996-2.3292999,0.8643951
	c-3.9073944,2.7782059-7.6299896,5.8057022-11.17099,9.0039063c-7.0721054,6.3874969-13.2807999,13.5016937-16.9399033,22.4843979
	c0.340004,0.3378983,0.7332993,0.245697,1.1094971,0.1857986c6.145401-0.9791031,11.6675034,0.6334991,16.602211,4.2387009
	c7.1776886,5.2436981,10.7826843,12.6414948,12.1521912,21.2124939c0.232605,1.4561005,0.805603,2.0199127,2.0478058,2.1755066
	c2.9044952,0.3639984,5.8391876,0.543396,8.7153931,1.0567017c2.0287018,0.3619995,2.3733063-0.6846008,2.4792023-2.2194977
	c0.6526031-9.4661102,5.0009918-17.1920013,11.4790955-23.8082047
	C176.7898865,108.3588638,183.7149963,104.5020676,191.2923889,101.7676697z M206.3153839,199.032074
	c1.1634064-0.361908,2.3939056-0.3578033,3.469101-1.175705c4.8967133-3.7247009,7.5075989-8.9300995,9.952713-14.6587067
	c-2.6552124,0.1690063-4.9766083,0.316803-7.2980042,0.4645081c-11.3059998-0.1152039-22.040802-2.4078064-31.7891998-8.4006958
	c-11.4374084-7.0314026-19.2378998-16.5863037-20.9400024-30.3408051c-0.0776978-0.6282959-0.0457916-1.2136078-0.9485016-1.3231049
	c-3.5511017-0.430191-7.0959015-0.9136047-10.6399994-1.3990936c-1.196701-0.1640015-1.5870972,0.2052002-1.5697937,1.5021973
	c0.1295013,9.7100067-3.5219116,17.8153992-10.6548004,24.3518982c-3.365799,3.0843964-7.4729004,4.7420044-12.091507,5.6875
	c0.5835037,0.8482056,0.9778137,1.5202026,1.4670029,2.1141052c1.4934006,1.8126984,2.9157028,3.7009888,4.5562973,5.3728027
	c12.6880951,12.9297943,28.2628937,19.2885895,46.223999,20.130188
	C186.2349854,201.8341675,196.3767853,201.744873,206.3153839,199.032074z M201.0127869,277.2402649
	c3.293869-0.5545044,5.304306-0.7884827,6.4819031-3.7561035c0.1685181-0.4246826,0.4875183-0.7940063,0.7601929-1.1721802
	c5.4661102-7.5810242,12.0702057-13.5877075,21.6012115-15.4848022c1.2905884-0.257019,1.6463928-0.9449158,1.3752899-2.1235046
	c-0.1387024-0.6034088-0.3345947-1.1981049-0.4205017-1.8087006c-1.2688904-9.0249023-3.7028961-17.724411-7.086792-26.1844025
	c-0.713501-1.7837982-1.7203064-2.5245056-3.5870056-2.5882111c-6.9322968-0.2362976-13.7883911-1.1852875-20.6123962-2.3905945
	c-17.4483948-3.0820007-33.8542023-8.5399017-47.3101044-20.7314911c-1.4333801-0.4541016-1.687088,1.013092-2.4852905,1.5697937
	c-1.4602966,1.0186005-1.6082001,1.7064056,0.2292938,2.8865051c10.0429077,6.4499969,14.6259003,16.1004944,14.2576141,27.6989899
	c-0.4077148,12.8433075-6.0621185,22.8613129-18.3656158,28.2059174c-1.3683014,0.5943909-1.4638977,1.2762756-1.1143036,2.4794922
	c0.9828033,3.3822937,2.1973114,6.6777039,3.4084015,9.9833069c0.7422028,2.0256958,2.0055237,2.7678833,3.9477997,2.944397
	c7.3984985,0.6719971,14.7720032,1.8136902,22.2232056,1.588501
	C181.7062836,278.1338806,198.1531982,277.7216797,201.0127869,277.2402649z M232.9022827,198.3868713
	c0.5026093,2.4411926,1.0922089,4.4125977,1.2881012,6.4225006c0.6053009,6.2095032-1.6299896,11.6156921-5.8954926,15.8607941
	c-2.2080078,2.1974945-2.1961975,3.6529999-1.1294098,6.2904053c3.5167999,8.6940918,5.9057159,17.7245941,6.9995117,27.0749969
	c0.1548004,1.3238983,0.5986938,2.3803864,2.4572144,2.6220856c6.7067871,0.8722229,11.4596863,4.7852173,14.8270721,10.4513245
	c0.7125092,1.1989746,1.205307,0.324585,1.619812,0.078186c2.5601044-1.5210876,4.751709-3.5212097,6.9187927-5.5444031
	c0.6176147-0.5765991,0.855011-1.2836914,0.7793274-2.1196899c-0.5172119-5.7197113-0.888916-11.4337006-2.1361389-17.0886078
	C254.8238831,225.171875,246.6605835,210.5065613,232.9022827,198.3868713z M209.2113953,76.0404663
	c5.9671936,5.9973984,9.0924988,13.421402,10.8408966,21.5390015c0.3302917,1.533699,1.5929108,2.0493011,2.8394928,2.1882019
	c7.1993103,0.8022003,13.6816101,3.5926971,19.8426971,7.1688995c4.6872101,2.7205963,8.864502,6.2151947,12.3204041,10.357399
	c5.2783051,6.3265991,8.2005157,13.7490005,8.9664154,21.9872055c0.04599,0.4948883-0.1710205,1.2887878,0.5815735,1.3267975
	c0.7892151,0.0399017,0.5944214-0.7611084,0.6502075-1.2541046c0.0703125-0.6212006,0.0696106-1.2514954,0.0794067-1.8782959
	c0.1911011-12.1893997-3.5705872-23.1352005-10.7008057-32.9035034
	c-11.0446014-15.1307983-26.29039-24.0270996-44.0018005-29.1409988
	C210.1358948,75.2884674,208.3633118,74.9736176,209.2113953,76.0404663z M264.5957947,143.8936615
	c-1.1025085,0.7891998-1.0400085,1.7262115-1.1288147,2.3580017c-1.4042969,9.9915009-6.6503906,17.8543091-14.0844879,24.1663971
	c-7.1396027,6.0621033-15.5375061,9.9646149-24.7898102,11.805603c-0.9800873,0.1950989-1.4644775,0.6115112-1.7537994,1.497406
	c-1.3216858,4.0467987-3.2332001,7.7881012-5.8536835,11.1571045c-0.2081146,0.2675934-0.7536163,0.4133911-0.4854126,0.8956909
	c0.3686066,0.6627045,0.8079987,0.1271973,1.1813049-0.0175934c5.6620026-2.1970978,11.2045898-4.6529999,16.344696-7.9179077
	c14.1614075-8.9949036,24.7756042-20.8184967,29.4761047-37.2857971
	C264.0912781,148.4877625,264.8052979,146.4019623,264.5957947,143.8936615z M263.8497009,267.764679
	c2.4112854-10.2911987,8.8275757-15.6633148,18.4839783-17.7450104c-0.5054016-0.4568024-0.6562805-0.709198-0.855896-0.7566986
	c-6.0387878-1.4367065-11.8733826-1.0554962-17.3579102,2.0798035c-0.505188,0.2887878-0.9787903,0.7653961-0.7892761,1.5443878
	C264.469574,257.5679626,263.9380798,262.3134766,263.8497009,267.764679z M249.9303894,212.8617706
	c2.0915985,3.8248901,4.3444977,7.2238007,5.9581909,10.9644012c0.3153076,0.7312012,0.8489075,0.8486023,1.4268188,0.1626892
	c3.6021729-4.2751007,5.1984863-9.1799011,4.8914795-15.0531921
	C258.1976929,210.9690704,254.3065796,212.3561707,249.9303894,212.8617706z M130.6455841,288.5010681
	c0.9183044-1.1630859,1.4262085-2.2905884,2.2979126-2.8259888c3.6024933-2.2125244,2.475708-4.7125244,1.3404999-7.9261169
	c-1.3216095-3.7413025-4.2056122-4.9187012-7.314003-6.6851807
	C127.6287918,277.1619568,128.740387,282.7943726,130.6455841,288.5010681z M106.3993912,116.2737656
	c1.5554962-0.9375992,2.8248062-1.8713989,4.2300034-2.5029984c1.4469986-0.6503983,2.2213974-1.5736008,2.7680969-3.0978012
	c1.5730972-4.3862991,3.9617081-8.3475952,6.7717972-12.0791016c2.0811996-2.7634964,4.4611053-5.2665939,7.1436005-8.2345963
	C121.1300888,93.2538681,109.8155899,106.3311691,106.3993912,116.2737656z M253.3810883,296.2215576
	c2.2429962-4.6940918,4.3192902-21.3834839,3.533493-27.2361755c-3.6234894,1.117981-3.6511993,1.3357849-2.7752991,4.889679
	c0.8479156,3.4407959,1.2241974,6.9875183,1.0987091,10.5256958
	C255.0963898,288.3867798,254.5550842,292.3448792,253.3810883,296.2215576z M100.6268921,154.9936676
	c0.3356018-1.4665985,0.2668991-1.4403076-0.3759003-3.1235962c-2.8907013-7.5705109-2.5772018-14.898407,2.1298981-21.6737061
	c1.1583099-1.6672974,1.042099-3.1244965,0.6399994-5.467598
	C97.4294891,134.9089661,96.6379929,144.7954712,100.6268921,154.9936676z M131.2167969,269.5821533
	c-0.6071014-2.5507813-1.1019135-4.5868835-1.5744019-6.6283875c-0.3476105-1.5015869-1.7276077-1.699585-2.7497025-1.6481018
	c-1.0070038,0.0508118-0.3768005,1.2755127-0.4979019,1.9700012
	C125.7808914,266.7940674,128.359787,267.9713745,131.2167969,269.5821533z M136.5742035,308.1969604
	c-1.0619202-3.9743958-0.288208-8.8747864-5.5564117-11.257782
	C132.2595978,301.1576538,134.0930939,304.7932739,136.5742035,308.1969604z M127.4493866,90.1090698l-0.0833969,0.1169968
	l0.1512985,0.0097046L127.4493866,90.1090698z"/>
<path fill="#6359E7" d="M241.1307831,59.8704681c-0.0458984,6.6601028-5.563797,12.0536957-12.2305756,11.9552994
	c-6.6263123-0.0979004-11.869812-5.4168015-11.8699188-12.0405006c-0.0000916-6.713398,5.4093018-12.1385002,12.0713959-12.1064987
	C235.7402802,47.7105675,241.17659,53.2204666,241.1307831,59.8704681z M224.9239807,52.1471672
	c-3.7828979,2.1823006-5.4498901,6.0879021-4.2960968,10.0653c1.1350098,3.9126015,4.5641022,6.3185997,8.7701111,6.1534004
	c3.6924896-0.1067963,6.6439972-2.1761017,7.8757935-5.5215988c1.2612915-3.4257011,0.3329926-7.1511002-2.3919067-9.5996017
	C232.1094818,50.7535667,228.4866943,50.3542671,224.9239807,52.1471672z"/>
<polygon fill="#ECECED" points="127.4493866,90.1090698 127.5172882,90.2357712 127.3659897,90.2260666 "/>
<path fill="#FFFFFF" d="M210.3143921,142.6911621c-0.1565094,1.3659058-0.7622986,2.3214111-2.0095978,2.7308044
	c-0.5095062,0.1672974-1.0781097,0.1856995-1.6225128,0.2100983c-3.6174927,0.1620026-3.6147003,0.1567078-3.7318878,3.7134094
	c-0.0154114,0.4666901-0.0010071,0.9566956-0.1379089,1.3927917c-0.4434967,1.4127045-1.3892822,2.2640991-2.9266968,2.2393036
	c-1.5534058-0.0251007-2.4871979-0.9506073-2.8049011-2.3733063c-0.2006836-0.8990936-0.2019043-1.8846893-0.0832977-2.8044891
	c0.2333984-1.8123016-0.5175018-2.3874054-2.2383881-2.1804047c-0.8447113,0.101593-1.7273102,0.0368042-2.576004-0.0774078
	c-1.6422119-0.220993-2.5461121-1.3035889-2.5457153-2.8772888c0.000412-1.5737,0.9149017-2.5909119,2.5440063-2.8980103
	c1.5209961-0.2867889,3.5489044,0.6634064,4.4562988-0.4933929c0.7467957-0.9517975,0.1893005-2.8596039,0.4026947-4.315506
	c0.2275085-1.552597,1.1917267-2.5760956,2.8457184-2.5950012c1.7603912-0.0202942,2.7310028,1.0288086,3.0236816,2.689209
	c0.2563171,1.4530945-0.601593,3.3212891,0.401001,4.3076019c0.9906006,0.9742889,2.8463135,0.1702881,4.3081055,0.3913879
	C209.3681946,140.015564,210.1786957,141.0909729,210.3143921,142.6911621z"/>
<path fill="#FFFFFF" d="M251.7356873,148.7262726c-1.3977966-0.1704102-2.1351929-1.0348053-1.9964905-2.3834076
	c0.1940002-1.8869019-0.3473053-2.7388-2.3926086-2.5028992c-1.2758942,0.1470947-2.4078064-0.3930969-2.3973846-1.9198914
	c0.0112915-1.6571045,1.2192841-2.125412,2.5917816-1.9722137c1.7687073,0.197403,2.3927002-0.4193878,2.194397-2.1911926
	c-0.1534882-1.3717957,0.3095093-2.5955963,1.9682007-2.5904999c1.6776123,0.0050049,2.0890045,1.2814941,1.9394989,2.6215057
	c-0.2056885,1.8450928,0.5608063,2.324295,2.2524109,2.1560974c1.4102936-0.1404114,2.5850983,0.4324036,2.5601044,2.0260925
	c-0.0232239,1.478302-1.2073975,2.0001984-2.4803925,1.8730011c-1.8699188-0.1869049-2.5138245,0.5077057-2.333313,2.3511963
	C253.7676849,147.4781647,253.2046814,148.485672,251.7356873,148.7262726z"/>
<path fill="#FFFFFF" d="M226.9865875,166.3108673c-3.3916016-0.0341034-5.9037933-1.8529968-8.1871033-4.0895996
	c-0.7718964-0.7561035-0.8786926-1.6763-0.1040955-2.5142059c0.7601929-0.8221893,1.6667023-0.79599,2.5314026-0.16539
	c0.6950989,0.506897,1.3047943,1.1313019,2.002594,1.6340027c3.0772095,2.2170868,5.3815002,1.886795,7.6970062-1.0776062
	c0.3853912-0.4934082,0.6988983-1.0505981,1.1264954-1.5018005c0.6719971-0.709198,1.5023956-0.8495941,2.3347931-0.2967987
	c0.8366089,0.5556946,0.9600067,1.3587036,0.6350098,2.2778931
	C234.0262909,163.395462,230.0044861,166.2706604,226.9865875,166.3108673z"/>
<path fill="#6359E7" d="M289.9476929,283.7503662c-3.4532166,0.8600159-6.550415,0.3666077-8.7973022-2.6328125
	c-3.2918091-4.3940735-0.6325989-10.5375977,5.1716003-11.4519958c5.8626099,0.1983032,9.3603821,4.2087097,8.0144958,9.1826172
	C293.694397,281.2208557,292.0007935,282.6447754,289.9476929,283.7503662z"/>
</svg>
